<svg width="152" height="60" viewBox="0 0 152 60" fill="none" xmlns="http://www.w3.org/2000/svg">
<path fill-rule="evenodd" clip-rule="evenodd" d="M0.865822 0.165908C0.690673 0.257224 0.423437 0.480552 0.272046 0.662201C0.043579 0.93624 -0.00264859 1.07174 0.000114012 1.45775C0.00324496 1.89251 0.444985 2.7784 6.76518 15.0256L13.5269 28.1283L13.573 42.0425L13.619 55.9568L13.8641 56.3163C14.4599 57.1908 15.7019 57.1884 16.3759 56.3117C16.5656 56.0649 16.5658 56.0499 16.5896 41.7962L16.6135 27.5278L10.4889 15.6944C7.12036 9.18603 4.36429 3.76142 4.36429 3.63969C4.36429 3.51805 4.44349 3.32344 4.54027 3.20735L4.71625 2.99618L8.56907 2.97355L12.4219 2.95102L18.982 15.6437L25.542 28.3365L25.5437 42.1133C25.5446 50.026 25.5805 55.9777 25.628 56.0958C25.6735 56.2088 25.8561 56.4367 26.034 56.6022C26.3744 56.919 26.9405 57.0553 27.4249 56.9372C27.7278 56.8633 28.3006 56.3737 28.4095 56.0955C28.46 55.9664 28.4934 50.3297 28.492 42.1749L28.4894 28.4712L38.1906 15.2791C43.5263 8.02342 47.9186 1.98964 47.9514 1.87078C48.1239 1.24453 47.8261 0.557826 47.2368 0.222344C46.4932 -0.200878 45.7577 0.00304094 45.1356 0.804944C44.9638 1.0263 40.9358 6.49993 36.1844 12.9685C31.433 19.4372 27.4713 24.8061 27.3805 24.8994C27.2207 25.0638 27.0129 24.6754 20.7626 12.5346L14.3096 0H7.74701C1.53097 0 1.16759 0.00876491 0.865822 0.165908Z" fill="#F37021"/>
<path d="M67.8535 15.4863L62.9316 6.92188H65.5488L68.9961 12.9473L72.4531 6.92188H75.0703L70.1289 15.4863V22H67.8535V15.4863ZM76.8184 22V5.89648L87.8145 17.4004V6.92188H90.0898V22.918L79.0938 11.4434V22H76.8184ZM102.688 18.3379H96.2324L94.5527 22H92.1016L99.5625 5.97461L106.76 22H104.27L102.688 18.3379ZM101.76 16.1992L99.5234 11.0723L97.1797 16.1992H101.76ZM108.654 22V5.89648L119.65 17.4004V6.92188H121.926V22.918L110.93 11.4434V22H108.654ZM136.828 7.73242V10.4277C135.513 9.32747 134.152 8.77734 132.746 8.77734C131.197 8.77734 129.891 9.33398 128.83 10.4473C127.762 11.554 127.229 12.9082 127.229 14.5098C127.229 16.0918 127.762 17.4264 128.83 18.5137C129.898 19.6009 131.206 20.1445 132.756 20.1445C133.557 20.1445 134.237 20.0143 134.797 19.7539C135.109 19.6237 135.432 19.4479 135.764 19.2266C136.102 19.0052 136.457 18.7383 136.828 18.4258V21.1699C135.526 21.9056 134.159 22.2734 132.727 22.2734C130.572 22.2734 128.732 21.5215 127.209 20.0176C125.692 18.5007 124.934 16.6712 124.934 14.5293C124.934 12.6087 125.568 10.8965 126.838 9.39258C128.4 7.55013 130.422 6.62891 132.902 6.62891C134.257 6.62891 135.565 6.99674 136.828 7.73242ZM142.414 12.8203H148.918V6.92188H151.193V22H148.918V14.959H142.414V22H140.139V6.92188H142.414V12.8203ZM68.0566 43.8203H74.5605V37.9219H76.8359V53H74.5605V45.959H68.0566V53H65.7812V37.9219H68.0566V43.8203ZM84.6961 46.4863L79.7742 37.9219H82.3914L85.8387 43.9473L89.2957 37.9219H91.9129L86.9715 46.4863V53H84.6961V46.4863ZM97.4684 50.8613H104.705V53H93.7281L101.13 40.0605H94.9391V37.9219H104.871L97.4684 50.8613ZM108.034 53L111.207 36.7891L116.383 48.5078L121.745 36.7891L124.596 53H122.262L120.807 43.8984L116.344 53.6934L112.008 43.8887L110.387 53H108.034ZM137.857 49.3379H131.402L129.722 53H127.271L134.732 36.9746L141.929 53H139.439L137.857 49.3379ZM136.929 47.1992L134.693 42.0723L132.349 47.1992H136.929ZM148.344 40.0605V53H146.068V40.0605H142.602V37.9219H151.801V40.0605H148.344Z" fill="black"/>
</svg>
